<svg id="Layer_1" data-name="Layer 1" xmlns="http://www.w3.org/2000/svg" viewBox="0 0 185.08 342.83"><defs><style>.cls-1{fill:#fff;}</style></defs><path class="cls-1" d="M105.63,228.06v-6c0-36.65-.08-73.29.11-109.94,0-4.4-1.3-6.78-5.15-9C68.48,84.86,36.51,66.33,4.49,47.87,3.21,47.13,2,46.31,0,45.08c1.9-1.19,3.33-2.14,4.81-3C28.3,28.49,51.82,15,75.26,1.28c2.91-1.7,5.07-1.72,8.06,0q49,28.54,98.14,56.74c2.68,1.54,3.63,3.19,3.62,6.24-.1,38.14,0,76.29-.2,114.44,0,1.88-1.22,4.62-2.72,5.5-24.71,14.48-49.55,28.73-74.36,43A22.29,22.29,0,0,1,105.63,228.06Z"/><path class="cls-1" d="M92.11,342.83c-14.23-8.19-27.79-16-41.33-23.79-11.54-6.66-23.11-13.26-34.51-20.16a7.44,7.44,0,0,1-3.11-5.31q-.25-65.25,0-130.5c0-1.64,1-4,2.32-4.8,25.29-14.79,50.7-29.4,76.67-44.38Z"/></svg>